<?xml version="1.0" encoding="utf-8"?>
<!-- Generator: Adobe Illustrator 26.4.1, SVG Export Plug-In . SVG Version: 6.00 Build 0)  -->
<svg version="1.1" id="Layer_1" xmlns="http://www.w3.org/2000/svg" xmlns:xlink="http://www.w3.org/1999/xlink" x="0px" y="0px"
	 viewBox="0 0 540 540" style="enable-background:new 0 0 540 540;" xml:space="preserve">
<style type="text/css">
	.st0{fill:#FFFFFF;}
	.st1{fill:#FFFFFF;stroke:#4D60A0;stroke-width:2.83;stroke-linecap:round;stroke-miterlimit:22.93;}
	.st2{fill:#4D60A0;stroke:#4D60A0;stroke-width:0.57;stroke-miterlimit:22.93;}
	.st3{fill:#4D60A0;stroke:#667CB4;stroke-width:0.57;stroke-miterlimit:22.93;}
	.st4{fill:#FFFFFF;stroke:#B32F5F;stroke-width:2.83;stroke-linecap:round;stroke-miterlimit:22.93;}
	.st5{fill:#B32F5F;stroke:#B45D7D;stroke-width:0.57;stroke-miterlimit:22.93;}
	.st6{fill:none;stroke:#231F20;stroke-width:0.57;stroke-miterlimit:22.93;}
	.st7{fill:none;stroke:#667CB4;stroke-width:1.42;stroke-miterlimit:22.93;stroke-dasharray:7.09,1.42;}
	.st8{fill:#667CB4;}
	.st9{fill:none;stroke:#B32F5F;stroke-width:1.98;stroke-miterlimit:22.93;stroke-dasharray:9.92,1.98,1.98,1.98,1.98,1.98;}
	.st10{fill:#B32F5F;}
	.st11{fill:#64407E;stroke:#704C8A;stroke-width:0.57;stroke-miterlimit:22.93;}
	.st12{fill:#231F20;}
	.st13{font-family:'IBMPlexSans-Bold';}
	.st14{font-size:14px;}
	.st15{font-family:'IBMPlexSans';}
	.st16{font-size:12px;}
</style>
<g id="Background">
	<rect x="4" y="6.2" class="st0" width="532.6" height="400.2"/>
</g>
<g id="Graphics">
	<rect x="376.2" y="264.7" class="st1" width="158.6" height="127.3"/>
	<rect x="417.9" y="342.4" class="st2" width="76.5" height="27"/>
	<rect x="417.9" y="299.9" class="st3" width="76.5" height="27"/>
	<rect x="376.2" y="14.9" class="st4" width="158.6" height="211.2"/>
	<rect x="417.9" y="177.7" class="st5" width="76.5" height="27"/>
	<rect x="417.9" y="135.2" class="st5" width="76.5" height="27"/>
	<rect x="417.9" y="92.7" class="st5" width="76.5" height="27"/>
	<rect x="417.9" y="50.1" class="st5" width="76.5" height="27"/>
	<path class="st6" d="M170.5,199.2h11.4c1.7,0,3.1,1.4,3.1,3.1v54.6c0,1.7-1.4,3.1-3.1,3.1h-11.4c-1.7,0-3.1-1.4-3.1-3.1v-54.6
		C167.4,200.5,168.8,199.2,170.5,199.2z"/>
	<path class="st6" d="M188.1,199.2h11.4c1.7,0,3.1,1.4,3.1,3.1v54.6c0,1.7-1.4,3.1-3.1,3.1h-11.4c-1.7,0-3.1-1.4-3.1-3.1v-54.6
		C185,200.5,186.4,199.2,188.1,199.2z"/>
	<path class="st6" d="M205.7,199.2h11.4c1.7,0,3.1,1.4,3.1,3.1v54.6c0,1.7-1.4,3.1-3.1,3.1h-11.4c-1.7,0-3.1-1.4-3.1-3.1v-54.6
		C202.6,200.5,204,199.2,205.7,199.2z"/>
	<path class="st6" d="M223.3,199.2h11.4c1.7,0,3.1,1.4,3.1,3.1v54.6c0,1.7-1.4,3.1-3.1,3.1h-11.4c-1.7,0-3.1-1.4-3.1-3.1v-54.6
		C220.2,200.5,221.6,199.2,223.3,199.2z"/>
	<path class="st6" d="M170.5,103.9h11.4c1.7,0,3.1,1.4,3.1,3.1v54.6c0,1.7-1.4,3.1-3.1,3.1h-11.4c-1.7,0-3.1-1.4-3.1-3.1V107
		C167.4,105.3,168.8,103.9,170.5,103.9z"/>
	<path class="st6" d="M188.1,103.9h11.4c1.7,0,3.1,1.4,3.1,3.1v54.6c0,1.7-1.4,3.1-3.1,3.1h-11.4c-1.7,0-3.1-1.4-3.1-3.1V107
		C185,105.3,186.4,103.9,188.1,103.9z"/>
	<path class="st6" d="M205.7,103.9h11.4c1.7,0,3.1,1.4,3.1,3.1v54.6c0,1.7-1.4,3.1-3.1,3.1h-11.4c-1.7,0-3.1-1.4-3.1-3.1V107
		C202.6,105.3,204,103.9,205.7,103.9z"/>
	<path class="st6" d="M223.3,103.9h11.4c1.7,0,3.1,1.4,3.1,3.1v54.6c0,1.7-1.4,3.1-3.1,3.1h-11.4c-1.7,0-3.1-1.4-3.1-3.1V107
		C220.2,105.3,221.6,103.9,223.3,103.9z"/>
	<path class="st6" d="M240.8,103.9h11.4c1.7,0,3.1,1.4,3.1,3.1v54.6c0,1.7-1.4,3.1-3.1,3.1h-11.4c-1.7,0-3.1-1.4-3.1-3.1V107
		C237.8,105.3,239.1,103.9,240.8,103.9z"/>
	<path class="st6" d="M258.4,103.9h11.4c1.7,0,3.1,1.4,3.1,3.1v54.6c0,1.7-1.4,3.1-3.1,3.1h-11.4c-1.7,0-3.1-1.4-3.1-3.1V107
		C255.3,105.3,256.7,103.9,258.4,103.9z"/>
	<path class="st6" d="M276,103.9h11.4c1.7,0,3.1,1.4,3.1,3.1v54.6c0,1.7-1.4,3.1-3.1,3.1H276c-1.7,0-3.1-1.4-3.1-3.1V107
		C272.9,105.3,274.3,103.9,276,103.9z"/>
	<path class="st6" d="M293.5,103.9H305c1.7,0,3.1,1.4,3.1,3.1v54.6c0,1.7-1.4,3.1-3.1,3.1h-11.4c-1.7,0-3.1-1.4-3.1-3.1V107
		C290.5,105.3,291.8,103.9,293.5,103.9z"/>
	<path class="st6" d="M170.5,293.3h11.4c1.7,0,3.1,1.4,3.1,3.1v54.6c0,1.7-1.4,3.1-3.1,3.1h-11.4c-1.7,0-3.1-1.4-3.1-3.1v-54.6
		C167.4,294.7,168.8,293.3,170.5,293.3z"/>
	<path class="st6" d="M188.1,293.3h11.4c1.7,0,3.1,1.4,3.1,3.1v54.6c0,1.7-1.4,3.1-3.1,3.1h-11.4c-1.7,0-3.1-1.4-3.1-3.1v-54.6
		C185,294.7,186.4,293.3,188.1,293.3z"/>
	<path class="st6" d="M205.7,293.3h11.4c1.7,0,3.1,1.4,3.1,3.1v54.6c0,1.7-1.4,3.1-3.1,3.1h-11.4c-1.7,0-3.1-1.4-3.1-3.1v-54.6
		C202.6,294.7,204,293.3,205.7,293.3z"/>
	<path class="st6" d="M223.3,293.3h11.4c1.7,0,3.1,1.4,3.1,3.1v54.6c0,1.7-1.4,3.1-3.1,3.1h-11.4c-1.7,0-3.1-1.4-3.1-3.1v-54.6
		C220.2,294.7,221.6,293.3,223.3,293.3z"/>
	<path class="st6" d="M240.8,293.3h11.4c1.7,0,3.1,1.4,3.1,3.1v54.6c0,1.7-1.4,3.1-3.1,3.1h-11.4c-1.7,0-3.1-1.4-3.1-3.1v-54.6
		C237.8,294.7,239.1,293.3,240.8,293.3z"/>
	<path class="st6" d="M258.4,293.3h11.4c1.7,0,3.1,1.4,3.1,3.1v54.6c0,1.7-1.4,3.1-3.1,3.1h-11.4c-1.7,0-3.1-1.4-3.1-3.1v-54.6
		C255.3,294.7,256.7,293.3,258.4,293.3z"/>
	<path class="st7" d="M84.3,229.6h78"/>
	<polygon class="st8" points="161.3,233.1 167.4,229.6 161.3,226.1 	"/>
	<path class="st7" d="M122.2,323.4V133.8"/>
	<path class="st7" d="M123.1,134.4h38.8"/>
	<polygon class="st8" points="160.9,137.9 167,134.4 160.9,130.8 	"/>
	<path class="st7" d="M123.1,322.8h38.8"/>
	<polygon class="st8" points="160.9,326.3 167,322.8 160.9,319.2 	"/>
	<path class="st7" d="M238.2,229.6h95.1"/>
	<path class="st7" d="M273,323.4h73.7"/>
	<path class="st7" d="M333.4,355.7h79.4"/>
	<polygon class="st8" points="411.8,359.3 417.9,355.7 411.8,352.2 	"/>
	<path class="st9" d="M333.4,106h77.4"/>
	<polygon class="st10" points="409.3,110.9 417.9,105.9 409.3,101 	"/>
	<path class="st9" d="M319.5,63.7h91.2"/>
	<polygon class="st10" points="409.3,68.7 417.9,63.7 409.3,58.8 	"/>
	<path class="st9" d="M346.4,148.8h64.4"/>
	<polygon class="st10" points="409.3,153.7 417.9,148.8 409.3,143.8 	"/>
	<path class="st7" d="M346.7,354.7v-31.3"/>
	<path class="st7" d="M333.4,354.3V229.6"/>
	<path class="st9" d="M346.7,320.3V148.8"/>
	<path class="st9" d="M333.4,225.6V105.5"/>
	<path class="st9" d="M319.5,129.8V63.4"/>
	<path class="st9" d="M309,129.5h10.5"/>
	<path class="st7" d="M319.5,312.4h93.3"/>
	<polygon class="st8" points="411.8,315.9 417.9,312.4 411.8,308.8 	"/>
	<path class="st7" d="M319.5,311.8v-174"/>
	<path class="st7" d="M308.9,138.5h10.6"/>
	<rect x="7.2" y="215.8" class="st11" width="76.5" height="27"/>
</g>
<g id="text">
	<text transform="matrix(1 0 0 1 211.44 63.92)" class="st12 st13 st14">my</text>
	<text transform="matrix(1 0 0 1 230.9 63.92)" class="st12 st13 st14">Topic</text>
	<text transform="matrix(1 0 0 1 184.01 97.3)" class="st12 st15 st16">Partition 0</text>
	<text transform="matrix(1 0 0 1 184.01 192.3)" class="st12 st15 st16">Partition 1</text>
	<text transform="matrix(1 0 0 1 185.01 286.3)" class="st12 st15 st16">Partition 2</text>
	<text transform="matrix(1 0 0 1 59.69 234.14)" class="st0 st13 st16"></text>
    <text transform="matrix(1 0 0 1 19.79 234.14)" class="st0 st13 st16">Producer</text>
	<text transform="matrix(1 0 0 1 27.54 234.14)" class="st0 st13 st16"></text>
	<text transform="matrix(1 0 0 1 32.33 234.14)" class="st0 st13 st16"></text>
	<text transform="matrix(1 0 0 1 53.55 234.14)" class="st0 st13 st16"></text>
	<text transform="matrix(1 0 0 1 59.69 234.14)" class="st0 st13 st16"></text>
	<text transform="matrix(1 0 0 1 427.78 153.63)" class="st0 st13 st16">Consumer</text>
	<text transform="matrix(1 0 0 1 427.6799 195.81)" class="st0 st13 st16">Consumer</text>
	<text transform="matrix(1 0 0 1 427.6 110.63)" class="st0 st13 st16">Consumer</text>
	<text transform="matrix(1 0 0 1 427.6 68.11)" class="st0 st13 st16">Consumer</text>
	<text transform="matrix(1 0 0 1 427.6799 317.31)" class="st0 st13 st16">Consumer</text>
	<text transform="matrix(1 0 0 1 427.6799 359.36)" class="st0 st13 st16">Consumer</text>
	<text transform="matrix(1 0 0 1 394.98 284.28)" class="st12 st15 st14">Consumer Group B</text>
	<text transform="matrix(1 0 0 1 394.98 35.47)" class="st12 st15 st14">Consumer Group A</text>
	<text transform="matrix(1 0 0 1 172.91 137.64)" class="st12 st15 st16">0</text>
	<text transform="matrix(1 0 0 1 189.91 137.64)" class="st12 st15 st16">1</text>
	<text transform="matrix(1 0 0 1 207.79 137.64)" class="st12 st15 st16">2</text>
	<text transform="matrix(1 0 0 1 224.78 137.64)" class="st12 st15 st16">3</text>
	<text transform="matrix(1 0 0 1 243.18 137.64)" class="st12 st15 st16">4</text>
	<text transform="matrix(1 0 0 1 260.54 137.64)" class="st12 st15 st16">5</text>
	<text transform="matrix(1 0 0 1 278.36 137.64)" class="st12 st15 st16">6</text>
	<text transform="matrix(1 0 0 1 295.92 137.64)" class="st12 st15 st16">7</text>
	<text transform="matrix(1 0 0 1 172.91 327.3)" class="st12 st15 st16">0</text>
	<text transform="matrix(1 0 0 1 189.91 327.3)" class="st12 st15 st16">1</text>
	<text transform="matrix(1 0 0 1 207.79 327.3)" class="st12 st15 st16">2</text>
	<text transform="matrix(1 0 0 1 224.78 327.3)" class="st12 st15 st16">3</text>
	<text transform="matrix(1 0 0 1 243.18 327.3)" class="st12 st15 st16">4</text>
	<text transform="matrix(1 0 0 1 260.54 327.3)" class="st12 st15 st16">5</text>
	<text transform="matrix(1 0 0 1 172.91 232.3)" class="st12 st15 st16">0</text>
	<text transform="matrix(1 0 0 1 189.91 232.3)" class="st12 st15 st16">1</text>
	<text transform="matrix(1 0 0 1 207.79 232.3)" class="st12 st15 st16">2</text>
	<text transform="matrix(1 0 0 1 224.78 232.3)" class="st12 st15 st16">3</text>
</g>
</svg>
